<?xml version="1.0" standalone="no"?>
<!DOCTYPE svg PUBLIC "-//W3C//DTD SVG 20010904//EN"
 "http://www.w3.org/TR/2001/REC-SVG-20010904/DTD/svg10.dtd">
<svg version="1.0" xmlns="http://www.w3.org/2000/svg"
 width="310.000000pt" height="241.000000pt" viewBox="0 0 310.000000 241.000000"
 preserveAspectRatio="xMidYMid meet">

<g transform="translate(0.000000,241.000000) scale(0.100000,-0.100000)"
fill="#673ab7" stroke="none">
<path d="M1057 2343 c-4 -3 -7 -222 -7 -485 l0 -478 100 0 100 0 0 -90 c0 -49
2 -90 3 -90 2 0 79 40 170 90 l167 90 225 0 225 0 -2 483 -3 482 -486 2 c-267
2 -489 0 -492 -4z m913 -478 l0 -415 -197 0 -198 0 -125 -69 -125 -68 -3 69
-3 68 -99 0 -100 0 0 415 0 415 425 0 425 0 0 -415z"/>
<path d="M1750 1920 l0 -130 30 0 30 0 0 130 0 130 -30 0 -30 0 0 -130z"/>
<path d="M1272 1868 l3 -163 30 0 30 0 3 68 3 67 54 0 55 0 0 -71 0 -70 33 3
32 3 3 163 2 162 -35 0 -35 0 0 -60 0 -60 -55 0 -55 0 0 60 0 60 -35 0 -35 0
2 -162z"/>
<path d="M1592 1868 l3 -163 33 -3 32 -3 0 165 0 166 -35 0 -35 0 2 -162z"/>
<path d="M1750 1735 c-14 -17 -5 -51 15 -59 35 -13 63 21 45 55 -13 23 -43 25
-60 4z"/>
<path d="M810 1004 c-56 -20 -106 -57 -131 -98 -17 -29 -19 -53 -19 -316 0
-170 4 -300 11 -323 13 -48 70 -112 123 -139 118 -60 307 19 332 140 4 20 6
153 5 295 -2 334 -15 379 -126 431 -62 30 -127 33 -195 10z m139 -163 c17 -17
19 -43 26 -265 6 -221 6 -249 -9 -271 -22 -34 -63 -49 -101 -38 -48 14 -54 48
-54 311 l-1 233 25 24 c30 31 86 34 114 6z"/>
<path d="M890 812 l-35 -17 -6 -90 c-9 -121 -9 -289 0 -350 4 -30 8 42 9 184
1 204 3 236 18 252 9 11 23 19 30 19 7 0 16 5 19 10 8 13 6 13 -35 -8z"/>
<path d="M1423 1014 c-22 -5 -29 -27 -49 -149 -5 -31 -18 -95 -53 -255 -50
-228 -93 -471 -87 -487 6 -14 82 -16 126 -4 21 6 27 17 43 89 l19 83 85 -3 86
-3 19 -83 20 -82 79 0 c77 0 79 1 74 23 -3 12 -14 62 -24 112 -11 50 -42 196
-70 325 -28 129 -60 277 -71 329 -11 52 -22 97 -25 99 -7 7 -146 11 -172 6z
m112 -443 c14 -63 25 -115 23 -116 -10 -9 -108 -15 -108 -7 0 5 11 59 25 120
14 61 25 114 25 118 0 26 13 -18 35 -115z"/>
<path d="M1506 504 c-4 -14 -5 -28 -3 -31 3 -2 8 8 11 23 4 14 5 28 3 31 -3 2
-8 -8 -11 -23z"/>
<path d="M52 568 l3 -443 176 0 176 0 41 29 c65 45 96 119 96 226 0 91 -11
126 -56 168 l-24 22 30 62 c27 54 31 72 29 136 -2 101 -36 171 -101 210 -45
26 -53 27 -210 30 l-162 4 2 -444z m293 278 c16 -11 20 -30 23 -90 3 -51 0
-81 -8 -91 -17 -21 -75 -35 -115 -28 l-35 6 0 108 0 109 58 0 c34 0 66 -6 77
-14z m9 -367 c13 -6 27 -21 30 -33 10 -39 6 -132 -7 -150 -16 -22 -89 -38
-133 -30 l-34 6 0 102 c0 57 3 106 7 109 11 11 110 8 137 -4z"/>
<path d="M263 823 c-21 -4 -23 -10 -23 -78 0 -45 5 -77 11 -81 9 -5 10 14 7
70 l-5 76 26 0 c14 0 33 5 41 10 12 8 10 9 -10 8 -14 0 -35 -3 -47 -5z"/>
<path d="M248 403 c0 -27 -2 -61 -2 -76 -1 -16 2 -31 6 -33 4 -3 8 29 8 70 l0
75 48 4 47 3 -52 2 -53 2 -2 -47z"/>
<path d="M1917 1004 c-3 -5 -7 -205 -8 -444 l-3 -434 25 -7 c32 -9 93 -11 113
-3 14 5 16 28 16 149 0 184 4 207 38 203 24 -3 30 -15 82 -173 49 -151 58
-170 80 -176 36 -10 118 -10 124 -1 3 5 -1 26 -9 48 -7 21 -36 104 -64 184
l-51 144 45 46 c56 57 75 113 75 219 0 119 -47 201 -130 231 -41 15 -325 26
-333 14z m284 -164 c16 -9 19 -22 19 -90 0 -56 -4 -83 -15 -93 -16 -16 -108
-33 -125 -22 -6 4 -10 49 -10 111 l0 104 56 0 c30 0 64 -5 75 -10z"/>
<path d="M2107 813 c-4 -3 -6 -40 -5 -82 l2 -76 5 75 6 75 40 6 40 6 -41 2
c-22 0 -44 -2 -47 -6z"/>
<path d="M2524 997 c-4 -11 1 -781 6 -871 0 -4 73 -6 163 -4 180 5 201 11 255
72 48 54 54 107 50 396 -3 249 -4 256 -28 305 -21 41 -35 55 -80 78 -50 25
-68 28 -207 34 -134 5 -153 4 -159 -10z m299 -155 c14 -15 17 -55 20 -262 2
-135 -1 -257 -5 -272 -11 -30 -51 -48 -109 -48 l-37 0 -4 163 c-1 89 -2 224 0
300 l4 137 57 0 c43 0 62 -5 74 -18z"/>
<path d="M2727 823 c-4 -3 -6 -126 -5 -272 l2 -266 6 265 5 265 35 6 35 6 -36
2 c-20 0 -39 -2 -42 -6z"/>
<path d="M1648 890 c9 -38 17 -68 19 -66 6 6 -20 136 -27 136 -4 0 0 -31 8
-70z"/>
<path d="M1154 818 c3 -10 8 -127 12 -260 8 -301 1 -355 -53 -410 -52 -54
-130 -82 -208 -75 -47 5 -55 4 -35 -4 58 -24 162 1 238 58 66 49 67 56 67 378
-1 218 -4 295 -14 310 -9 14 -11 15 -7 3z"/>
<path d="M3025 527 c0 -293 -1 -303 -22 -343 -34 -64 -73 -82 -199 -95 -60 -6
-137 -9 -171 -7 -37 2 -59 0 -56 -6 4 -5 65 -6 156 -2 171 8 218 22 259 77 46
62 50 94 50 368 -1 141 -5 268 -9 283 -4 16 -8 -107 -8 -275z"/>
<path d="M557 758 c6 -66 -8 -148 -30 -176 -5 -7 -7 -15 -4 -19 12 -12 40 72
45 132 2 33 -1 76 -6 95 -9 29 -10 24 -5 -32z"/>
<path d="M2411 721 c-1 -121 -15 -166 -68 -218 -24 -22 -43 -49 -42 -60 0 -14
2 -14 6 -3 3 8 23 33 44 55 21 22 45 57 54 77 18 43 28 190 15 221 -6 15 -9
-8 -9 -72z"/>
<path d="M1682 750 c0 -14 2 -19 5 -12 2 6 2 18 0 25 -3 6 -5 1 -5 -13z"/>
<path d="M1691 705 c0 -11 6 -42 13 -70 8 -27 14 -41 14 -30 0 29 -25 124 -27
100z"/>
<path d="M1722 565 c0 -11 4 -31 8 -45 6 -20 8 -21 8 -5 0 11 -4 31 -8 45 -6
20 -8 21 -8 5z"/>
<path d="M1746 445 c3 -27 10 -57 15 -65 9 -17 0 51 -13 90 -5 16 -6 7 -2 -25z"/>
<path d="M578 368 c8 -128 -37 -232 -115 -264 -18 -8 -63 -15 -100 -15 -58 -1
-63 -2 -30 -9 55 -10 132 5 171 35 49 38 79 113 84 212 2 45 0 89 -6 98 -6 12
-8 -7 -4 -57z"/>
<path d="M2098 311 c-5 -68 -8 -149 -8 -179 l0 -55 -71 5 c-41 3 -65 2 -58 -3
8 -5 42 -9 76 -9 77 0 75 -8 71 205 l-3 160 -7 -124z"/>
<path d="M1780 303 c0 -6 9 -55 20 -108 11 -54 18 -101 14 -104 -3 -3 -36 -6
-74 -6 -37 0 -66 -3 -63 -7 7 -12 141 -10 148 2 3 6 -4 58 -15 118 -20 98 -30
133 -30 105z"/>
<path d="M1462 248 c-5 -7 -16 -40 -23 -73 -19 -94 -19 -94 -102 -98 l-72 -3
77 -2 c90 -2 88 -4 109 101 l13 67 35 1 c20 0 45 4 56 9 15 6 7 9 -31 9 -30 1
-56 -4 -62 -11z"/>
<path d="M2385 198 c4 -13 11 -27 16 -33 5 -5 4 5 -2 23 -12 36 -24 44 -14 10z"/>
<path d="M2415 106 l6 -29 -71 5 c-77 6 -85 0 -18 -12 80 -15 118 7 87 50 -8
11 -9 8 -4 -14z"/>
<path d="M106 78 c7 -11 174 -10 174 1 0 5 -40 8 -90 8 -49 0 -87 -4 -84 -9z"/>
</g>
</svg>
