<?xml version="1.0" encoding="utf-8"?>
<svg viewBox="-15.614 0 226.408 135.437" xmlns="http://www.w3.org/2000/svg">
  <g transform="matrix(0.043853, 0, 0, -0.034125, -0.767387, 63.166862)" fill="#673ab7" stroke="none" style="">
    <g transform="matrix(1, 0, 0, 1, 801.085938, -1911.065552)" fill="#673ab7" stroke="none">
      <path d="M -822.621 2343 C -826.621 2340 -829.621 2121 -829.621 1858 L -829.621 1380 L -729.621 1380 L -629.621 1380 L -629.621 1290 C -629.621 1241 -627.621 1200 -626.621 1200 C -624.621 1200 -547.621 1240 -456.621 1290 L -289.621 1380 L -64.621 1380 L 160.379 1380 L 158.379 1863 L 155.379 2345 L -330.621 2347 C -597.621 2349 -819.621 2347 -822.621 2343 Z M 90.379 1865 L 90.379 1450 L -106.621 1450 L -304.621 1450 L -429.621 1381 L -554.621 1313 L -557.621 1382 L -560.621 1450 L -659.621 1450 L -759.621 1450 L -759.621 1865 L -759.621 2280 L -334.621 2280 L 90.379 2280 L 90.379 1865 Z" style="fill: rgb(255, 255, 255);"/>
      <path d="M -129.621 1920 L -129.621 1790 L -99.621 1790 L -69.621 1790 L -69.621 1920 L -69.621 2050 L -99.621 2050 L -129.621 2050 L -129.621 1920 Z" style="fill: rgb(255, 255, 255);"/>
      <path d="M -607.621 1868 L -604.621 1705 L -574.621 1705 L -544.621 1705 L -541.621 1773 L -538.621 1840 L -484.621 1840 L -429.621 1840 L -429.621 1769 L -429.621 1699 L -396.621 1702 L -364.621 1705 L -361.621 1868 L -359.621 2030 L -394.621 2030 L -429.621 2030 L -429.621 1970 L -429.621 1910 L -484.621 1910 L -539.621 1910 L -539.621 1970 L -539.621 2030 L -574.621 2030 L -609.621 2030 L -607.621 1868 Z" style="fill: rgb(255, 255, 255);"/>
      <path d="M -287.621 1868 L -284.621 1705 L -251.621 1702 L -219.621 1699 L -219.621 1864 L -219.621 2030 L -254.621 2030 L -289.621 2030 L -287.621 1868 Z" style="fill: rgb(255, 255, 255);"/>
      <path d="M -129.621 1735 C -143.621 1718 -134.621 1684 -114.621 1676 C -79.621 1663 -51.621 1697 -69.621 1731 C -82.621 1754 -112.621 1756 -129.621 1735 Z" style="fill: rgb(255, 255, 255);"/>
      <path d="M 1402.878 2234.768 C 1346.878 2214.768 1296.878 2177.768 1271.878 2136.768 C 1254.878 2107.768 1252.878 2083.768 1252.878 1820.768 C 1252.878 1650.768 1256.878 1520.768 1263.878 1497.768 C 1276.878 1449.768 1333.878 1385.768 1386.878 1358.768 C 1504.878 1298.768 1693.878 1377.768 1718.878 1498.768 C 1722.878 1518.768 1724.878 1651.768 1723.878 1793.768 C 1721.878 2127.768 1708.878 2172.768 1597.878 2224.768 C 1535.878 2254.768 1470.878 2257.768 1402.878 2234.768 Z M 1541.878 2071.768 C 1558.878 2054.768 1560.878 2028.768 1567.878 1806.768 C 1573.878 1585.768 1573.878 1557.768 1558.878 1535.768 C 1536.878 1501.768 1495.878 1486.768 1457.878 1497.768 C 1409.878 1511.768 1403.878 1545.768 1403.878 1808.768 L 1402.878 2041.768 L 1427.878 2065.768 C 1457.878 2096.768 1513.878 2099.768 1541.878 2071.768 Z" style="fill: rgb(255, 255, 255);"/>
      <path d="M 1482.878 2042.768 L 1447.878 2025.768 L 1441.878 1935.768 C 1432.878 1814.768 1432.878 1646.768 1441.878 1585.768 C 1445.878 1555.768 1449.878 1627.768 1450.878 1769.768 C 1451.878 1973.768 1453.878 2005.768 1468.878 2021.768 C 1477.878 2032.768 1491.878 2040.768 1498.878 2040.768 C 1505.878 2040.768 1514.878 2045.768 1517.878 2050.768 C 1525.878 2063.768 1523.878 2063.768 1482.878 2042.768 Z" style="fill: rgb(255, 255, 255);"/>
      <path d="M 2015.878 2244.768 C 1993.878 2239.768 1986.878 2217.768 1966.878 2095.768 C 1961.878 2064.768 1948.878 2000.768 1913.878 1840.768 C 1863.878 1612.768 1820.878 1369.768 1826.878 1353.768 C 1832.878 1339.768 1908.878 1337.768 1952.878 1349.768 C 1973.878 1355.768 1979.878 1366.768 1995.878 1438.768 L 2014.878 1521.768 L 2099.878 1518.768 L 2185.878 1515.768 L 2204.878 1432.768 L 2224.878 1350.768 L 2303.878 1350.768 C 2380.878 1350.768 2382.878 1351.768 2377.878 1373.768 C 2374.878 1385.768 2363.878 1435.768 2353.878 1485.768 C 2342.878 1535.768 2311.878 1681.768 2283.878 1810.768 C 2255.878 1939.768 2223.878 2087.768 2212.878 2139.768 C 2201.878 2191.768 2190.878 2236.768 2187.878 2238.768 C 2180.878 2245.768 2041.878 2249.768 2015.878 2244.768 Z M 2127.878 1801.768 C 2141.878 1738.768 2152.878 1686.768 2150.878 1685.768 C 2140.878 1676.768 2042.878 1670.768 2042.878 1678.768 C 2042.878 1683.768 2053.878 1737.768 2067.878 1798.768 C 2081.878 1859.768 2092.878 1912.768 2092.878 1916.768 C 2092.878 1942.768 2105.878 1898.768 2127.878 1801.768 Z" style="fill: rgb(255, 255, 255);"/>
      <path d="M 2098.878 1734.768 C 2094.878 1720.768 2093.878 1706.768 2095.878 1703.768 C 2098.878 1701.768 2103.878 1711.768 2106.878 1726.768 C 2110.878 1740.768 2111.878 1754.768 2109.878 1757.768 C 2106.878 1759.768 2101.878 1749.768 2098.878 1734.768 Z" style="fill: rgb(255, 255, 255);"/>
      <path d="M 644.878 1798.768 L 647.878 1355.768 L 823.878 1355.768 L 999.878 1355.768 L 1040.878 1384.768 C 1105.878 1429.768 1136.878 1503.768 1136.878 1610.768 C 1136.878 1701.768 1125.878 1736.768 1080.878 1778.768 L 1056.878 1800.768 L 1086.878 1862.768 C 1113.878 1916.768 1117.878 1934.768 1115.878 1998.768 C 1113.878 2099.768 1079.878 2169.768 1014.878 2208.768 C 969.878 2234.768 961.878 2235.768 804.878 2238.768 L 642.878 2242.768 L 644.878 1798.768 Z M 937.878 2076.768 C 953.878 2065.768 957.878 2046.768 960.878 1986.768 C 963.878 1935.768 960.878 1905.768 952.878 1895.768 C 935.878 1874.768 877.878 1860.768 837.878 1867.768 L 802.878 1873.768 L 802.878 1981.768 L 802.878 2090.768 L 860.878 2090.768 C 894.878 2090.768 926.878 2084.768 937.878 2076.768 Z M 946.878 1709.768 C 959.878 1703.768 973.878 1688.768 976.878 1676.768 C 986.878 1637.768 982.878 1544.768 969.878 1526.768 C 953.878 1504.768 880.878 1488.768 836.878 1496.768 L 802.878 1502.768 L 802.878 1604.768 C 802.878 1661.768 805.878 1710.768 809.878 1713.768 C 820.878 1724.768 919.878 1721.768 946.878 1709.768 Z" style="fill: rgb(255, 255, 255);"/>
      <path d="M 855.878 2053.768 C 834.878 2049.768 832.878 2043.768 832.878 1975.768 C 832.878 1930.768 837.878 1898.768 843.878 1894.768 C 852.878 1889.768 853.878 1908.768 850.878 1964.768 L 845.878 2040.768 L 871.878 2040.768 C 885.878 2040.768 904.878 2045.768 912.878 2050.768 C 924.878 2058.768 922.878 2059.768 902.878 2058.768 C 888.878 2058.768 867.878 2055.768 855.878 2053.768 Z" style="fill: rgb(255, 255, 255);"/>
      <path d="M 840.878 1633.768 C 840.878 1606.768 838.878 1572.768 838.878 1557.768 C 837.878 1541.768 840.878 1526.768 844.878 1524.768 C 848.878 1521.768 852.878 1553.768 852.878 1594.768 L 852.878 1669.768 L 900.878 1673.768 L 947.878 1676.768 L 895.878 1678.768 L 842.878 1680.768 L 840.878 1633.768 Z" style="fill: rgb(255, 255, 255);"/>
      <path d="M 2509.878 2234.768 C 2506.878 2229.768 2502.878 2029.768 2501.878 1790.768 L 2498.878 1356.768 L 2523.878 1349.768 C 2555.878 1340.768 2616.878 1338.768 2636.878 1346.768 C 2650.878 1351.768 2652.878 1374.768 2652.878 1495.768 C 2652.878 1679.768 2656.878 1702.768 2690.878 1698.768 C 2714.878 1695.768 2720.878 1683.768 2772.878 1525.768 C 2821.878 1374.768 2830.878 1355.768 2852.878 1349.768 C 2888.878 1339.768 2970.878 1339.768 2976.878 1348.768 C 2979.878 1353.768 2975.878 1374.768 2967.878 1396.768 C 2960.878 1417.768 2931.878 1500.768 2903.878 1580.768 L 2852.878 1724.768 L 2897.878 1770.768 C 2953.878 1827.768 2972.878 1883.768 2972.878 1989.768 C 2972.878 2108.768 2925.878 2190.768 2842.878 2220.768 C 2801.878 2235.768 2517.878 2246.768 2509.878 2234.768 Z M 2793.878 2070.768 C 2809.878 2061.768 2812.878 2048.768 2812.878 1980.768 C 2812.878 1924.768 2808.878 1897.768 2797.878 1887.768 C 2781.878 1871.768 2689.878 1854.768 2672.878 1865.768 C 2666.878 1869.768 2662.878 1914.768 2662.878 1976.768 L 2662.878 2080.768 L 2718.878 2080.768 C 2748.878 2080.768 2782.878 2075.768 2793.878 2070.768 Z" style="fill: rgb(255, 255, 255);"/>
      <path d="M 2699.878 2043.768 C 2695.878 2040.768 2693.878 2003.768 2694.878 1961.768 L 2696.878 1885.768 L 2701.878 1960.768 L 2707.878 2035.768 L 2747.878 2041.768 L 2787.878 2047.768 L 2746.878 2049.768 C 2724.878 2049.768 2702.878 2047.768 2699.878 2043.768 Z" style="fill: rgb(255, 255, 255);"/>
      <path d="M 3116.878 2227.768 C 3112.878 2216.768 3117.878 1446.768 3122.878 1356.768 C 3122.878 1352.768 3195.878 1350.768 3285.878 1352.768 C 3465.878 1357.768 3486.878 1363.768 3540.878 1424.768 C 3588.878 1478.768 3594.878 1531.768 3590.878 1820.768 C 3587.878 2069.768 3586.878 2076.768 3562.878 2125.768 C 3541.878 2166.768 3527.878 2180.768 3482.878 2203.768 C 3432.878 2228.768 3414.878 2231.768 3275.878 2237.768 C 3141.878 2242.768 3122.878 2241.768 3116.878 2227.768 Z M 3415.878 2072.768 C 3429.878 2057.768 3432.878 2017.768 3435.878 1810.768 C 3437.878 1675.768 3434.878 1553.768 3430.878 1538.768 C 3419.878 1508.768 3379.878 1490.768 3321.878 1490.768 L 3284.878 1490.768 L 3280.878 1653.768 C 3279.878 1742.768 3278.878 1877.768 3280.878 1953.768 L 3284.878 2090.768 L 3341.878 2090.768 C 3384.878 2090.768 3403.878 2085.768 3415.878 2072.768 Z" style="fill: rgb(255, 255, 255);"/>
      <path d="M 3319.878 2053.768 C 3315.878 2050.768 3313.878 1927.768 3314.878 1781.768 L 3316.878 1515.768 L 3322.878 1780.768 L 3327.878 2045.768 L 3362.878 2051.768 L 3397.878 2057.768 L 3361.878 2059.768 C 3341.878 2059.768 3322.878 2057.768 3319.878 2053.768 Z" style="fill: rgb(255, 255, 255);"/>
      <path d="M 2240.878 2120.768 C 2249.878 2082.768 2257.878 2052.768 2259.878 2054.768 C 2265.878 2060.768 2239.878 2190.768 2232.878 2190.768 C 2228.878 2190.768 2232.878 2159.768 2240.878 2120.768 Z" style="fill: rgb(255, 255, 255);"/>
      <path d="M 1746.878 2048.768 C 1749.878 2038.768 1754.878 1921.768 1758.878 1788.768 C 1766.878 1487.768 1759.878 1433.768 1705.878 1378.768 C 1653.878 1324.768 1575.878 1296.768 1497.878 1303.768 C 1450.878 1308.768 1442.878 1307.768 1462.878 1299.768 C 1520.878 1275.768 1624.878 1300.768 1700.878 1357.768 C 1766.878 1406.768 1767.878 1413.768 1767.878 1735.768 C 1766.878 1953.768 1763.878 2030.768 1753.878 2045.768 C 1744.878 2059.768 1742.878 2060.768 1746.878 2048.768 Z" style="fill: rgb(255, 255, 255);"/>
      <path d="M 3617.878 1757.768 C 3617.878 1464.768 3616.878 1454.768 3595.878 1414.768 C 3561.878 1350.768 3522.878 1332.768 3396.878 1319.768 C 3336.878 1313.768 3259.878 1310.768 3225.878 1312.768 C 3188.878 1314.768 3166.878 1312.768 3169.878 1306.768 C 3173.878 1301.768 3234.878 1300.768 3325.878 1304.768 C 3496.878 1312.768 3543.878 1326.768 3584.878 1381.768 C 3630.878 1443.768 3634.878 1475.768 3634.878 1749.768 C 3633.878 1890.768 3629.878 2017.768 3625.878 2032.768 C 3621.878 2048.768 3617.878 1925.768 3617.878 1757.768 Z" style="fill: rgb(255, 255, 255);"/>
      <path d="M 1149.878 1988.768 C 1155.878 1922.768 1141.878 1840.768 1119.878 1812.768 C 1114.878 1805.768 1112.878 1797.768 1115.878 1793.768 C 1127.878 1781.768 1155.878 1865.768 1160.878 1925.768 C 1162.878 1958.768 1159.878 2001.768 1154.878 2020.768 C 1145.878 2049.768 1144.878 2044.768 1149.878 1988.768 Z" style="fill: rgb(255, 255, 255);"/>
      <path d="M 3003.878 1951.768 C 3002.878 1830.768 2988.878 1785.768 2935.878 1733.768 C 2911.878 1711.768 2892.878 1684.768 2893.878 1673.768 C 2893.878 1659.768 2895.878 1659.768 2899.878 1670.768 C 2902.878 1678.768 2922.878 1703.768 2943.878 1725.768 C 2964.878 1747.768 2988.878 1782.768 2997.878 1802.768 C 3015.878 1845.768 3025.878 1992.768 3012.878 2023.768 C 3006.878 2038.768 3003.878 2015.768 3003.878 1951.768 Z" style="fill: rgb(255, 255, 255);"/>
      <path d="M 2274.878 1980.768 C 2274.878 1966.768 2276.878 1961.768 2279.878 1968.768 C 2281.878 1974.768 2281.878 1986.768 2279.878 1993.768 C 2276.878 1999.768 2274.878 1994.768 2274.878 1980.768 Z" style="fill: rgb(255, 255, 255);"/>
      <path d="M 2283.878 1935.768 C 2283.878 1924.768 2289.878 1893.768 2296.878 1865.768 C 2304.878 1838.768 2310.878 1824.768 2310.878 1835.768 C 2310.878 1864.768 2285.878 1959.768 2283.878 1935.768 Z" style="fill: rgb(255, 255, 255);"/>
      <path d="M 2314.878 1795.768 C 2314.878 1784.768 2318.878 1764.768 2322.878 1750.768 C 2328.878 1730.768 2330.878 1729.768 2330.878 1745.768 C 2330.878 1756.768 2326.878 1776.768 2322.878 1790.768 C 2316.878 1810.768 2314.878 1811.768 2314.878 1795.768 Z" style="fill: rgb(255, 255, 255);"/>
      <path d="M 2338.878 1675.768 C 2341.878 1648.768 2348.878 1618.768 2353.878 1610.768 C 2362.878 1593.768 2353.878 1661.768 2340.878 1700.768 C 2335.878 1716.768 2334.878 1707.768 2338.878 1675.768 Z" style="fill: rgb(255, 255, 255);"/>
      <path d="M 1170.878 1598.768 C 1178.878 1470.768 1133.878 1366.768 1055.878 1334.768 C 1037.878 1326.768 992.878 1319.768 955.878 1319.768 C 897.878 1318.768 892.878 1317.768 925.878 1310.768 C 980.878 1300.768 1057.878 1315.768 1096.878 1345.768 C 1145.878 1383.768 1175.878 1458.768 1180.878 1557.768 C 1182.878 1602.768 1180.878 1646.768 1174.878 1655.768 C 1168.878 1667.768 1166.878 1648.768 1170.878 1598.768 Z" style="fill: rgb(255, 255, 255);"/>
      <path d="M 2690.878 1541.768 C 2685.878 1473.768 2682.878 1392.768 2682.878 1362.768 L 2682.878 1307.768 L 2611.878 1312.768 C 2570.878 1315.768 2546.878 1314.768 2553.878 1309.768 C 2561.878 1304.768 2595.878 1300.768 2629.878 1300.768 C 2706.878 1300.768 2704.878 1292.768 2700.878 1505.768 L 2697.878 1665.768 L 2690.878 1541.768 Z" style="fill: rgb(255, 255, 255);"/>
      <path d="M 2372.878 1533.768 C 2372.878 1527.768 2381.878 1478.768 2392.878 1425.768 C 2403.878 1371.768 2410.878 1324.768 2406.878 1321.768 C 2403.878 1318.768 2370.878 1315.768 2332.878 1315.768 C 2295.878 1315.768 2266.878 1312.768 2269.878 1308.768 C 2276.878 1296.768 2410.878 1298.768 2417.878 1310.768 C 2420.878 1316.768 2413.878 1368.768 2402.878 1428.768 C 2382.878 1526.768 2372.878 1561.768 2372.878 1533.768 Z" style="fill: rgb(255, 255, 255);"/>
      <path d="M 2054.878 1478.768 C 2049.878 1471.768 2038.878 1438.768 2031.878 1405.768 C 2012.878 1311.768 2012.878 1311.768 1929.878 1307.768 L 1857.878 1304.768 L 1934.878 1302.768 C 2024.878 1300.768 2022.878 1298.768 2043.878 1403.768 L 2056.878 1470.768 L 2091.878 1471.768 C 2111.878 1471.768 2136.878 1475.768 2147.878 1480.768 C 2162.878 1486.768 2154.878 1489.768 2116.878 1489.768 C 2086.878 1490.768 2060.878 1485.768 2054.878 1478.768 Z" style="fill: rgb(255, 255, 255);"/>
      <path d="M 2977.878 1428.768 C 2981.878 1415.768 2988.878 1401.768 2993.878 1395.768 C 2998.878 1390.768 2997.878 1400.768 2991.878 1418.768 C 2979.878 1454.768 2967.878 1462.768 2977.878 1428.768 Z" style="fill: rgb(255, 255, 255);"/>
      <path d="M 3007.878 1336.768 L 3013.878 1307.768 L 2942.878 1312.768 C 2865.878 1318.768 2857.878 1312.768 2924.878 1300.768 C 3004.878 1285.768 3042.878 1307.768 3011.878 1350.768 C 3003.878 1361.768 3002.878 1358.768 3007.878 1336.768 Z" style="fill: rgb(255, 255, 255);"/>
      <path d="M 698.878 1308.768 C 705.878 1297.768 872.878 1298.768 872.878 1309.768 C 872.878 1314.768 832.878 1317.768 782.878 1317.768 C 733.878 1317.768 695.878 1313.768 698.878 1308.768 Z" style="fill: rgb(255, 255, 255);"/>
    </g>
  </g>
</svg>